<svg width="22" height="26" viewBox="0 0 22 26" fill="none" xmlns="http://www.w3.org/2000/svg">
  <path fill-rule="evenodd" clip-rule="evenodd" d="M9.11214 3.27006L10.9995 2.17972C12.8859 3.27006 18.2253 6.35259 20.1117 7.44197V11.4273L21.999 10.3379V6.35259L10.9995 0L5.3374 3.27006L16.3379 9.62265V13.607L18.2253 12.5177C18.2262 12.5177 18.2253 8.78363 18.2253 8.53231L9.11214 3.27006Z" fill="#F05151"/>
  <path fill-rule="evenodd" clip-rule="evenodd" d="M20.1116 15.7868V17.9665C18.2242 19.0568 12.8859 22.1393 10.9995 23.2297L7.54944 21.2365V23.4162L10.9995 25.4084L21.999 19.0568L22 12.5177L10.9995 18.8693L7.54944 16.8771V19.0568C7.54847 19.0568 10.782 20.9233 10.9995 21.049L20.1116 15.7868Z" fill="#ED1B35"/>
  <path fill-rule="evenodd" clip-rule="evenodd" d="M3.77378 19.0568L1.88641 17.9674C1.88641 15.7877 1.88641 9.62265 1.88641 7.44293L5.33644 5.44977L3.45003 4.3604L0 6.35259V19.0568L5.66211 22.3269V9.62168L9.11215 7.62949L7.22574 6.54108C7.22574 6.54011 3.99218 8.40761 3.77474 8.53327L3.77378 19.0568Z" fill="#F26864"/>
</svg>
