<svg width="38" height="47" viewBox="0 0 38 47" fill="none" xmlns="http://www.w3.org/2000/svg">
  <rect x="0.5" y="0.5" width="37" height="37" fill="#1A2B49" stroke="white"/>
  <path d="M24.9844 8.65625L23.5 10.375L21.3516 8.65625C21.2344 8.57812 21.1172 8.5 21 8.5C20.8438 8.5 20.7266 8.57812 20.6094 8.65625L18.5 10.375L16.3516 8.65625C16.2344 8.57812 16.1172 8.5 16 8.5C15.8438 8.5 15.7266 8.57812 15.6094 8.65625L13.5 10.375L11.9766 8.65625C11.5859 8.34375 11 8.61719 11 9.125V27.875C11 28.4219 11.5859 28.6953 11.9766 28.3828L13.5 26.625L15.6094 28.3828C15.7266 28.4609 15.8438 28.5391 15.9609 28.5391C16.1172 28.5391 16.2344 28.4609 16.3516 28.3828L18.5 26.625L20.6094 28.3828C20.7266 28.4609 20.8438 28.5391 20.9609 28.5391C21.1172 28.5391 21.2344 28.4609 21.3516 28.3828L23.5 26.625L24.9844 28.3828C25.375 28.6953 26 28.4219 26 27.875V9.125C26 8.61719 25.4141 8.34375 24.9844 8.65625ZM23.5 22.5625C23.5 22.7578 23.3438 22.875 23.1875 22.875H13.8125C13.6172 22.875 13.5 22.7578 13.5 22.5625V21.9375C13.5 21.7812 13.6172 21.625 13.8125 21.625H23.1875C23.3438 21.625 23.5 21.7812 23.5 21.9375V22.5625ZM23.5 18.8125C23.5 19.0078 23.3438 19.125 23.1875 19.125H13.8125C13.6172 19.125 13.5 19.0078 13.5 18.8125V18.1875C13.5 18.0312 13.6172 17.875 13.8125 17.875H23.1875C23.3438 17.875 23.5 18.0312 23.5 18.1875V18.8125ZM23.5 15.0625C23.5 15.2578 23.3438 15.375 23.1875 15.375H13.8125C13.6172 15.375 13.5 15.2578 13.5 15.0625V14.4375C13.5 14.2812 13.6172 14.125 13.8125 14.125H23.1875C23.3438 14.125 23.5 14.2812 23.5 14.4375V15.0625Z" fill="white"/>
  <path d="M30.371 33.216C30.6743 33.006 30.9847 32.754 31.302 32.46C31.6193 32.1613 31.8923 31.8393 32.121 31.494C32.3497 31.144 32.464 30.8127 32.464 30.5C32.464 30.3227 32.4127 30.1827 32.31 30.08C32.212 29.9727 32.0767 29.919 31.904 29.919C31.6987 29.919 31.5003 29.975 31.309 30.087C31.1223 30.199 30.966 30.3553 30.84 30.556L30.238 29.933C30.406 29.6483 30.637 29.4267 30.931 29.268C31.225 29.1093 31.5517 29.03 31.911 29.03C32.4383 29.03 32.8513 29.156 33.15 29.408C33.4487 29.66 33.598 30.0123 33.598 30.465C33.598 30.8477 33.4463 31.2653 33.143 31.718C32.8443 32.166 32.422 32.6513 31.876 33.174H33.752V34H30.371V33.216Z" fill="white"/>
</svg>
