<svg width="38" height="47" viewBox="0 0 38 47" fill="none" xmlns="http://www.w3.org/2000/svg">
  <rect x="0.5" y="0.5" width="37" height="37" fill="#1A2B49" stroke="white"/>
  <path d="M24.9844 8.65625L23.5 10.375L21.3516 8.65625C21.2344 8.57812 21.1172 8.5 21 8.5C20.8438 8.5 20.7266 8.57812 20.6094 8.65625L18.5 10.375L16.3516 8.65625C16.2344 8.57812 16.1172 8.5 16 8.5C15.8438 8.5 15.7266 8.57812 15.6094 8.65625L13.5 10.375L11.9766 8.65625C11.5859 8.34375 11 8.61719 11 9.125V27.875C11 28.4219 11.5859 28.6953 11.9766 28.3828L13.5 26.625L15.6094 28.3828C15.7266 28.4609 15.8438 28.5391 15.9609 28.5391C16.1172 28.5391 16.2344 28.4609 16.3516 28.3828L18.5 26.625L20.6094 28.3828C20.7266 28.4609 20.8438 28.5391 20.9609 28.5391C21.1172 28.5391 21.2344 28.4609 21.3516 28.3828L23.5 26.625L24.9844 28.3828C25.375 28.6953 26 28.4219 26 27.875V9.125C26 8.61719 25.4141 8.34375 24.9844 8.65625ZM23.5 22.5625C23.5 22.7578 23.3438 22.875 23.1875 22.875H13.8125C13.6172 22.875 13.5 22.7578 13.5 22.5625V21.9375C13.5 21.7812 13.6172 21.625 13.8125 21.625H23.1875C23.3438 21.625 23.5 21.7812 23.5 21.9375V22.5625ZM23.5 18.8125C23.5 19.0078 23.3438 19.125 23.1875 19.125H13.8125C13.6172 19.125 13.5 19.0078 13.5 18.8125V18.1875C13.5 18.0312 13.6172 17.875 13.8125 17.875H23.1875C23.3438 17.875 23.5 18.0312 23.5 18.1875V18.8125ZM23.5 15.0625C23.5 15.2578 23.3438 15.375 23.1875 15.375H13.8125C13.6172 15.375 13.5 15.2578 13.5 15.0625V14.4375C13.5 14.2812 13.6172 14.125 13.8125 14.125H23.1875C23.3438 14.125 23.5 14.2812 23.5 14.4375V15.0625Z" fill="white"/>
  <path d="M31.946 34.063C31.5727 34.063 31.2413 33.9953 30.952 33.86C30.6627 33.7247 30.4433 33.5333 30.294 33.286L30.84 32.684C30.9753 32.8287 31.141 32.9477 31.337 33.041C31.533 33.1297 31.7197 33.174 31.897 33.174C32.107 33.174 32.275 33.1133 32.401 32.992C32.5317 32.866 32.597 32.7027 32.597 32.502C32.597 32.2873 32.5223 32.1217 32.373 32.005C32.2237 31.8883 32.0113 31.83 31.736 31.83H31.26V31.046H31.729C31.9343 31.046 32.1023 30.9877 32.233 30.871C32.3683 30.7497 32.436 30.5957 32.436 30.409C32.436 30.2503 32.3847 30.1313 32.282 30.052C32.1793 29.968 32.0277 29.926 31.827 29.926C31.4257 29.926 31.0803 30.0893 30.791 30.416L30.273 29.807C30.4503 29.569 30.6907 29.3823 30.994 29.247C31.2973 29.107 31.6263 29.037 31.981 29.037C32.2937 29.037 32.569 29.0907 32.807 29.198C33.045 29.3007 33.2293 29.4477 33.36 29.639C33.4907 29.8257 33.556 30.0427 33.556 30.29C33.556 30.528 33.4953 30.7403 33.374 30.927C33.2527 31.1137 33.073 31.2677 32.835 31.389C33.1383 31.5103 33.3623 31.669 33.507 31.865C33.6517 32.061 33.724 32.3013 33.724 32.586C33.724 32.88 33.6493 33.139 33.5 33.363C33.3553 33.587 33.1477 33.7597 32.877 33.881C32.611 34.0023 32.3007 34.063 31.946 34.063Z" fill="white"/>
</svg>
